# xmcd
#
# Track frame offsets: 
#        150
#        16882
#        33028
#        49425
#        66157
#        84783
#        105698
#        123408
#        140483
#        164828
#        184426
#        201636
#        220474
#        238146
#        253218
#        271819
#
# Disc length: 3842 seconds
#
# Revision: 0
# Processed by: cddbd v1.5.2PL0 Copyright (c) Steve Scherf et al.
# Submitted via: ExactAudioCopy v0.99pb5
#
DISCID=f70f0010
DTITLE=Betrayl - The Life N Death Of My Hood
DYEAR=2009
DGENRE=Rap
TTITLE0=The Life N Death Of My Hood
TTITLE1=We Can Make It
TTITLE2=The Corner
TTITLE3=Where Were U
TTITLE4=On The Streets
TTITLE5=Talk 2 Much
TTITLE6=Blunted On A Rainy
TTITLE7=Marked For Death
TTITLE8=Blood Ova Money
TTITLE9=Deceases Thugz
TTITLE10=Untouchables
TTITLE11=Seen It All
TTITLE12=Chancery Lane
TTITLE13=Looking For The Enemy
TTITLE14=Princes Of New B.
TTITLE15=No LOve
EXTD=
EXTT0=
EXTT1=
EXTT2=
EXTT3=
EXTT4=
EXTT5=
EXTT6=
EXTT7=
EXTT8=
EXTT9=
EXTT10=
EXTT11=
EXTT12=
EXTT13=
EXTT14=
EXTT15=
PLAYORDER=
